<?xml version="1.0" encoding="UTF-8"?>
<svg width="232px" height="68px" viewBox="0 0 232 68" version="1.1" xmlns="http://www.w3.org/2000/svg" xmlns:xlink="http://www.w3.org/1999/xlink">
    <!-- Generator: Sketch 50.2 (55047) - http://www.bohemiancoding.com/sketch -->
    <title>ignite logo</title>
    <desc>Created with Sketch.</desc>
    <defs></defs>
    <g id="ignite-logo" stroke="none" stroke-width="1" fill="none" fill-rule="evenodd">
        <g id="logo" transform="translate(3.000000, 1.000000)">
            <g id="Group" transform="translate(0.000000, 1.000000)">
                <path d="M62.6108492,14.2023992 C61.0362944,7.89220525 56.1091732,2.96520511 49.7988242,1.390689 C38.0059121,-0.463563001 25.9956602,-0.463563001 14.2027481,1.390689 C7.89239915,2.96520511 2.96527796,7.89220525 1.39072317,14.2023992 C-0.46357439,25.9950216 -0.46357439,38.0049784 1.39072317,49.7976008 C2.96527796,56.1077947 7.89239915,61.0347949 14.2027481,62.609311 C25.9956602,64.463563 38.0059121,64.463563 49.7988242,62.609311 C56.1091732,61.0347949 61.0362944,56.1077947 62.6108492,49.7976008 C64.4630503,38.0048147 64.4630503,25.9951853 62.6108492,14.2023992 Z" id="Shape" fill="#EF712D" fill-rule="nonzero"></path>
                <g id="s1" transform="translate(9.000000, 10.000000)" stroke="#FFFFFF" stroke-linecap="round" stroke-linejoin="round">
                    <g id="ignite" transform="translate(2.787879, 0.000000)">
                        <polygon id="Shape" stroke-width="3" points="22.4579125 0 0 26.4 20.2121212 26.4 17.96633 44 40.4242424 17.6 20.2121212 17.6"></polygon>
                    </g>
                </g>
            </g>
            <text id="ignite" font-family="AvenirNext-Bold, Avenir Next" font-size="48" font-weight="bold" fill="#4A4A4A">
                <tspan x="84" y="48">ignite</tspan>
            </text>
        </g>
    </g>
</svg>